<?xml version="1.0" encoding="UTF-8"?> <svg xmlns="http://www.w3.org/2000/svg" viewBox="0 0 500 500" width="500" height="500"><path d="M734.567 34.372c-28.692 61.724-23.266 100.422 16.275 116.094 59.313 23.508 200.347 32.911 259.299 83.906 58.95 50.994 238.697 11.572 269.438-75.95C1310.32 70.9 1365.669-64 1073.808-64c-194.576 0-307.654 32.79-339.24 98.372h-.001z" fill="#FFFA72" fill-rule="nonzero" transform="matrix(1, 0, 0, 1, -913.905606, -49.735643)"></path><path d="M 734.567 34.372 C 705.875 96.096 715.123 127.373 750.842 150.466 C 799.499 181.923 816.91 283.552 1010.141 234.372 C 1203.372 185.192 1248.838 245.944 1279.579 158.422 C 1310.32 70.9 1365.669 -64 1073.808 -64 C 879.232 -64 766.154 -31.21 734.568 34.372 L 734.567 34.372 Z" fill="#FFFA72" fill-rule="nonzero" transform="matrix(2.2, 0, 0.800735, 2.2, -2113.905581, -9.735643)" style="position: relative;z-index: 4;fill: rgb(8 116 227);"></path><path d="M 734.567 34.372 C 705.875 96.096 711.301 134.794 750.842 150.466 C 810.155 173.974 4013.805 556.634 981.264 271.03 C -2051.277 -14.574 1248.838 245.944 1279.579 158.422 C 1310.32 70.9 1365.669 -64 1073.808 -64 C 879.232 -64 766.154 -31.21 734.568 34.372 L 734.567 34.372 Z" fill="#FFFA72" fill-rule="nonzero" transform="matrix(2.05, 0, 0.646363, 2.05, -1963.905576, -14.735643)" style="position: relative;z-index: 5;fill: rgb(0 124 230);"></path><path d="M 734.567 34.372 C 705.875 96.096 711.301 134.794 750.842 150.466 C 810.155 173.974 899.356 208.291 958.308 259.286 C 1017.258 310.28 1248.838 245.944 1279.579 158.422 C 1310.32 70.9 1365.669 -64 1073.808 -64 C 879.232 -64 766.154 -31.21 734.568 34.372 L 734.567 34.372 Z" fill="#FFFA72" fill-rule="nonzero" transform="matrix(1.9, 0, 0.509103, 1.9, -1813.905572, -19.735642)" style="position: relative;z-index: 6;fill: rgb(0 138 236);"></path><path d="M 734.567 34.372 C 705.875 96.096 711.301 134.794 750.842 150.466 C 810.155 173.974 918.922 193.183 977.874 244.178 C 1036.824 295.172 1248.838 245.944 1279.579 158.422 C 1310.32 70.9 1365.669 -64 1073.808 -64 C 879.232 -64 766.154 -31.21 734.568 34.372 L 734.567 34.372 Z" fill="#FFFA72" fill-rule="nonzero" transform="matrix(1.75, 0, 0.387966, 1.75, -1663.905567, -24.735642)" style="position: relative;z-index: 7;fill: rgb(33 146 236);"></path><path d="M 734.567 34.372 C 705.875 96.096 711.301 134.794 750.842 150.466 C 810.155 173.974 940.051 187.815 999.003 238.81 C 1057.953 289.804 1248.838 245.944 1279.579 158.422 C 1310.32 70.9 1365.669 -64 1073.808 -64 C 879.232 -64 766.154 -31.21 734.568 34.372 L 734.567 34.372 Z" fill="#FFFA72" fill-rule="nonzero" transform="matrix(1.6, 0, 0.282123, 1.6, -1513.905563, -29.735642)" style="position: relative;z-index: 8;fill: rgb(38 156 235);"></path><path d="M734.567 34.372c-28.692 61.724-23.266 100.422 16.275 116.094 59.313 23.508 200.347 32.911 259.299 83.906 58.95 50.994 238.697 11.572 269.438-75.95C1310.32 70.9 1365.669-64 1073.808-64c-194.576 0-307.654 32.79-339.24 98.372h-.001z" fill="#FFFA72" fill-rule="nonzero" transform="matrix(1.45, 0, 0.190896, 1.45, -1363.905558, -34.735643)" style="position: relative;z-index: 9;fill: rgb(49 164 236);"></path><path d="M734.567 34.372c-28.692 61.724-23.266 100.422 16.275 116.094 59.313 23.508 200.347 32.911 259.299 83.906 58.95 50.994 238.697 11.572 269.438-75.95C1310.32 70.9 1365.669-64 1073.808-64c-194.576 0-307.654 32.79-339.24 98.372h-.001z" fill="#FFFA72" fill-rule="nonzero" transform="matrix(1.3, 0, 0.113735, 1.3, -1213.905554, -39.735643)" style="position: relative;z-index: 10;fill: rgb(33 180 235);"></path><path d="M734.567 34.372c-28.692 61.724-23.266 100.422 16.275 116.094 59.313 23.508 200.347 32.911 259.299 83.906 58.95 50.994 238.697 11.572 269.438-75.95C1310.32 70.9 1365.669-64 1073.808-64c-194.576 0-307.654 32.79-339.24 98.372h-.001z" fill="#FFFA72" fill-rule="nonzero" transform="matrix(1.15, 0, 0.05021, 1.15, -1063.905549, -44.735643)" style="position: relative; z-index: 11; fill: rgb(50, 189, 233);"></path></svg> 